<?xml version="1.0" encoding="iso-8859-1"?>
<!-- Generator: Adobe Illustrator 19.0.0, SVG Export Plug-In . SVG Version: 6.00 Build 0)  -->
<svg version="1.1" id="Layer_1" xmlns="http://www.w3.org/2000/svg" xmlns:xlink="http://www.w3.org/1999/xlink" x="0px" y="0px"
	 viewBox="0 0 512 512" style="enable-background:new 0 0 512 512;" xml:space="preserve">
<g>
	<g>
		<path fill="rgba(255,255,255,.75)" d="M221.384,65.635C116.417,65.635,31.019,151.033,31.019,256s85.397,190.365,190.365,190.365S411.748,360.967,411.748,256
			S326.351,65.635,221.384,65.635z M221.384,428.654C126.182,428.654,48.73,351.202,48.73,256S126.182,83.346,221.384,83.346
			S394.038,160.798,394.038,256S316.586,428.654,221.384,428.654z"/>
	</g>
</g>
<g>
	<g>
		<path fill="rgba(255,255,255,.75)" d="M221.385,92.791c-35.832,0-69.862,11.44-98.413,33.083c-27.613,20.933-48.23,50.635-58.051,83.637
			c-1.397,4.687,1.273,9.618,5.96,11.013c4.686,1.396,9.618-1.274,11.013-5.961c8.755-29.418,27.143-55.902,51.776-74.575
			c25.448-19.29,55.778-29.487,87.715-29.487c80.228,0,145.498,65.27,145.498,145.498c0,4.557-0.215,9.16-0.638,13.678
			c-0.456,4.869,3.123,9.186,7.992,9.642c0.281,0.026,0.56,0.039,0.836,0.039c4.518,0,8.377-3.443,8.806-8.031
			c0.473-5.065,0.714-10.222,0.714-15.328C384.594,166.006,311.379,92.791,221.385,92.791z"/>
	</g>
</g>
<g>
	<g>
		<path fill="rgba(255,255,255,.75)" d="M367.043,307.87c-4.503-1.908-9.699,0.197-11.609,4.699c-22.889,54.021-75.507,88.929-134.051,88.929
			c-80.228,0-145.498-65.27-145.498-145.498c0-3.962,0.162-7.963,0.481-11.886c0.396-4.874-3.235-9.148-8.109-9.544
			c-4.874-0.386-9.148,3.235-9.544,8.109c-0.358,4.399-0.538,8.881-0.538,13.321c0.001,89.994,73.216,163.209,163.21,163.209
			c65.67,0,124.69-39.146,150.358-99.73C373.65,314.976,371.546,309.778,367.043,307.87z"/>
	</g>
</g>
<g>
	<g>
		<path fill="rgba(255,255,255,.75)" d="M297.411,143.22c-22.517-15.225-48.806-23.273-76.029-23.273C146.362,119.947,85.33,180.98,85.33,256
			c0,18.335,3.605,36.14,10.714,52.918c1.43,3.376,4.709,5.403,8.157,5.403c1.152,0,2.324-0.227,3.45-0.704
			c4.503-1.908,6.607-7.105,4.699-11.609c-6.177-14.58-9.31-30.06-9.31-46.009c0.001-65.252,53.09-118.341,118.343-118.341
			c23.672,0,46.531,6.997,66.107,20.234c4.051,2.739,9.557,1.675,12.296-2.376C302.526,151.464,301.462,145.959,297.411,143.22z"/>
	</g>
</g>
<g>
	<g>
		<path fill="rgba(255,255,255,.75)" d="M328.76,172.533c-3.006-3.859-8.571-4.55-12.427-1.544c-3.859,3.005-4.55,8.569-1.544,12.427
			c16.314,20.943,24.937,46.042,24.937,72.584c0,65.255-53.088,118.342-118.342,118.342c-34.694,0-67.543-15.21-90.122-41.728
			c-3.171-3.724-8.761-4.171-12.483-1.001c-3.724,3.171-4.171,8.76-1.001,12.484c25.952,30.477,63.715,47.956,103.607,47.956
			c75.02,0,136.053-61.033,136.053-136.053C357.436,225.478,347.521,196.616,328.76,172.533z"/>
	</g>
</g>
<g>
	<g>
		<path fill="rgba(255,255,255,.75)" d="M221.384,147.103c-60.045,0-108.897,48.851-108.897,108.897s48.851,108.897,108.897,108.897S330.28,316.045,330.28,256
			S281.429,147.103,221.384,147.103z M221.384,347.186c-50.28,0-91.186-40.906-91.186-91.186s40.906-91.186,91.186-91.186
			c50.28,0,91.186,40.906,91.186,91.186S271.664,347.186,221.384,347.186z"/>
	</g>
</g>
<g>
	<g>
		<path fill="rgba(255,255,255,.75)" d="M221.384,174.259c-45.072,0-81.741,36.669-81.741,81.741s36.669,81.741,81.741,81.741s81.741-36.669,81.741-81.741
			S266.456,174.259,221.384,174.259z M221.384,320.03c-35.306,0-64.03-28.724-64.03-64.03c0-35.306,28.724-64.03,64.03-64.03
			c35.306,0,64.03,28.724,64.03,64.03C285.414,291.306,256.69,320.03,221.384,320.03z"/>
	</g>
</g>
<g>
	<g>
		<path fill="rgba(255,255,255,.75)" d="M221.384,231.201c-13.675,0-24.802,11.126-24.802,24.8s11.127,24.801,24.802,24.801c13.676,0,24.801-11.126,24.801-24.801
			S235.059,231.201,221.384,231.201z M221.384,263.09c-3.909,0-7.091-3.181-7.091-7.09c0-3.909,3.182-7.09,7.091-7.09
			c3.91,0,7.09,3.181,7.09,7.09C228.474,259.909,225.293,263.09,221.384,263.09z"/>
	</g>
</g>
<g>
	<g>
		<path fill="rgba(255,255,255,.75)" d="M503.145,34.616H8.855C3.965,34.616,0,38.581,0,43.471v425.057c0,4.89,3.965,8.855,8.855,8.855h494.29
			c4.89,0,8.855-3.965,8.855-8.855V43.471C512,38.581,508.035,34.616,503.145,34.616z M494.29,459.675H17.71V52.327H494.29V459.675z
			"/>
	</g>
</g>
<g>
	<g>
		<path fill="rgba(255,255,255,.75)" d="M466.972,82.165h-53.131c-4.89,0-8.855,3.965-8.855,8.855v73.203c0,4.89,3.965,8.855,8.855,8.855h17.71v216.067h-8.265
			c-4.89,0-8.855,3.965-8.855,8.855v42.505c0,4.89,3.965,8.855,8.855,8.855h34.24c4.89,0,8.855-3.965,8.855-8.855v-42.505
			c0-4.89-3.965-8.855-8.855-8.855h-8.265V173.079h17.71c4.89,0,8.855-3.965,8.855-8.855V91.02
			C475.827,86.13,471.862,82.165,466.972,82.165z M448.671,431.651h-16.53v-24.795h16.53V431.651z M458.117,155.368h-35.421V99.876
			h35.421V155.368z"/>
	</g>
</g>
<g>
	<g>
		<path fill="rgba(255,255,255,.75)" d="M54.909,64.337c-13.347,0-24.204,10.858-24.204,24.204s10.859,24.204,24.204,24.204c13.347,0,24.204-10.858,24.204-24.204
			S68.256,64.337,54.909,64.337z M54.909,95.035c-3.581,0-6.494-2.913-6.494-6.494s2.914-6.494,6.494-6.494
			c3.581,0,6.494,2.913,6.494,6.494S58.49,95.035,54.909,95.035z"/>
	</g>
</g>
<g>
	<g>
		<path fill="rgba(255,255,255,.75)" d="M54.909,399.654c-13.347,0-24.204,10.858-24.204,24.204s10.859,24.204,24.204,24.204
			c13.347,0,24.204-10.858,24.204-24.204S68.256,399.654,54.909,399.654z M54.909,430.352c-3.581,0-6.494-2.913-6.494-6.494
			c0-3.581,2.914-6.494,6.494-6.494c3.581,0,6.494,2.913,6.494,6.494C61.403,427.439,58.49,430.352,54.909,430.352z"/>
	</g>
</g>
<g>
</g>
<g>
</g>
<g>
</g>
<g>
</g>
<g>
</g>
<g>
</g>
<g>
</g>
<g>
</g>
<g>
</g>
<g>
</g>
<g>
</g>
<g>
</g>
<g>
</g>
<g>
</g>
<g>
</g>
</svg>
